<svg preserveAspectRatio="none" overflow="visible" style="display: block;" width="13" height="13" viewBox="0 0 13 13" fill="none" xmlns="http://www.w3.org/2000/svg">
<g id="Group">
<path id="Vector" d="M3.97528 5.46263L6.49988 2.93814L9.02577 5.46393L10.4948 3.99496L6.49988 0L2.50635 3.99366L3.97528 5.46263ZM0 6.49968L1.46904 5.03066L2.93798 6.49959L1.46896 7.96859L0 6.49968ZM3.97528 7.53713L6.49988 10.0616L9.0257 7.5359L10.4955 9.00409L10.4948 9.00487L6.49988 12.9998L2.50622 9.00623L2.50414 9.00415L3.97528 7.53713ZM10.062 6.50048L11.5311 5.03147L13 6.50039L11.531 7.96941L10.062 6.50048Z" fill="white"/>
<path id="Vector_2" d="M7.98917 6.50038H7.98982L6.49918 5.00977L5.39757 6.11137H5.3975L5.27095 6.23798L5.00991 6.49908L5.00783 6.5011L5.00991 6.50324L6.49918 7.99256L7.98982 6.50194L7.99054 6.5011L7.98917 6.50038" fill="white"/>
</g>
</svg>
