<svg width="80" height="80" viewBox="0 0 80 80" fill="none" xmlns="http://www.w3.org/2000/svg">
<path d="M66.8378 77.6762C67.6242 77.5504 68.0174 77.4875 68.3696 77.409C72.8808 76.4039 76.4039 72.8808 77.409 68.3696C77.4875 68.0174 77.5504 67.6242 77.6762 66.8378C78.0535 64.4799 78.2421 63.301 78.4117 62.1259C80.5294 47.4513 80.5294 32.5487 78.4117 17.8741C78.2421 16.699 78.0535 15.5201 77.6762 13.1622C77.5504 12.3758 77.4875 11.9826 77.409 11.6304C76.4039 7.11918 72.8808 3.59608 68.3696 2.59103C68.0174 2.51255 67.6242 2.44963 66.8378 2.32381C64.4799 1.94655 63.301 1.75792 62.1259 1.58833C47.4513 -0.529443 32.5487 -0.529443 17.8741 1.58833C16.6991 1.75792 15.5201 1.94655 13.1622 2.32381C12.3758 2.44964 11.9826 2.51255 11.6304 2.59102C7.11917 3.59608 3.59608 7.11918 2.59103 11.6304C2.51255 11.9826 2.44964 12.3758 2.32382 13.1622C1.94656 15.5201 1.75791 16.699 1.58833 17.8741C-0.529441 32.5487 -0.529441 47.4513 1.58833 62.1259C1.75791 63.301 1.94656 64.4799 2.32382 66.8378C2.44964 67.6242 2.51255 68.0174 2.59103 68.3696C3.59607 72.8808 7.11917 76.4039 11.6304 77.409C11.9826 77.4875 12.3758 77.5504 13.1622 77.6762C15.5201 78.0534 16.699 78.2421 17.8741 78.4117C32.5487 80.5294 47.4513 80.5294 62.1259 78.4117C63.301 78.2421 64.4799 78.0534 66.8378 77.6762Z" fill="#2A9B7D" fill-opacity="0.1"/>
</svg>
