<svg width="18" height="18" viewBox="0 0 18 18" fill="none" xmlns="http://www.w3.org/2000/svg">
<path fill-rule="evenodd" clip-rule="evenodd" d="M11.8804 2.1604C12.1288 2.16059 12.3304 2.36199 12.3304 2.6104C12.3304 2.85881 12.1288 3.06021 11.8804 3.0604H11.0709V6.63228L14.7922 13.188L14.8072 13.2179C15.5338 14.7501 14.4152 16.5153 12.718 16.5156H5.28335C3.58613 16.5153 2.46749 14.7501 3.19419 13.2179L3.20913 13.188L6.93042 6.63228V3.0604H6.12007C5.87168 3.06023 5.67007 2.85882 5.67007 2.6104C5.67007 2.36198 5.87168 2.16057 6.12007 2.1604H11.8804ZM4.73052 12.3302L4.0019 13.6143C3.56961 14.5452 4.24921 15.6153 5.28335 15.6156H12.718C13.7522 15.6153 14.4312 14.5453 13.9986 13.6143L13.27 12.3302H4.73052ZM7.83042 6.75005C7.83042 6.82781 7.81074 6.90476 7.77241 6.97241L5.24204 11.4302H12.7593L10.229 6.97241C10.1906 6.90475 10.1709 6.82782 10.1709 6.75005V3.0604H7.83042V6.75005Z" fill="black"/>
</svg>
