<svg preserveAspectRatio="none" width="100%" height="100%" overflow="visible" style="display: block;" viewBox="0 0 18 18" fill="none" xmlns="http://www.w3.org/2000/svg">
<g id="project-discord-l">
<path id="Union" d="M6.34246 2.34405C6.11384 2.21527 5.84563 2.17453 5.5893 2.23067L5.59018 2.23155C4.79672 2.40352 4.01972 2.644 3.26829 2.95138H3.26741L3.25423 2.95665H3.2551C3.10805 3.01398 2.97547 3.10418 2.86842 3.22032C2.75994 3.33812 2.68031 3.47971 2.63552 3.63341L0.0464641 12.2783C-0.0121427 12.4738 -0.0130285 12.6824 0.0429488 12.8786C0.0990093 13.0749 0.209904 13.2516 0.362846 13.3866L0.365483 13.3884C1.60609 14.468 3.29459 15.2907 5.22019 15.7623L5.22107 15.7614C5.45417 15.8202 5.7 15.7972 5.91799 15.6955C6.1353 15.5941 6.31141 15.4215 6.41629 15.206L7.1967 13.6591C7.79349 13.7331 8.39518 13.7714 8.99831 13.7672L8.99744 13.7681C8.99856 13.768 8.99983 13.7672 9.00095 13.7672L9.00359 13.7681V13.7672C9.60648 13.7714 10.2078 13.7331 10.8043 13.6591L11.5839 15.2069L11.5847 15.206C11.6896 15.4212 11.8651 15.5941 12.0822 15.6955C12.3004 15.7973 12.5466 15.8204 12.78 15.7614V15.7623C14.7056 15.2907 16.394 14.468 17.6347 13.3884L17.6373 13.3866C17.7903 13.2515 17.9011 13.0749 17.9572 12.8786C18.0132 12.6823 18.0123 12.4739 17.9537 12.2783L15.3646 3.63341C15.3198 3.47975 15.2402 3.3381 15.1317 3.22032C15.0249 3.10446 14.8926 3.01396 14.7459 2.95665C13.9906 2.64677 13.2087 2.40452 12.4108 2.23155C12.1545 2.17549 11.8863 2.21523 11.6577 2.34405C11.4576 2.45687 11.2999 2.63076 11.2068 2.83888L11.1708 2.93028L11.169 2.9338L10.6839 4.40333C10.127 4.33907 9.56581 4.30891 9.00359 4.3128V4.31193L9.00095 4.3128C8.99983 4.31281 8.99856 4.31199 8.99744 4.31193L8.99831 4.3128C8.43582 4.30887 7.87429 4.33993 7.3171 4.40421L6.8311 2.9338L6.82934 2.93028C6.74462 2.68186 6.57109 2.47297 6.34246 2.34405ZM5.90129 3.12804C5.93597 3.14772 5.96223 3.17946 5.97599 3.21681L6.41453 4.53956C5.86043 4.64096 5.31196 4.7749 4.77286 4.94386C4.53583 5.01815 4.40434 5.27105 4.47845 5.50812C4.52501 5.65624 4.64071 5.76393 4.77901 5.80519C4.83415 5.82164 4.89288 5.82703 4.95214 5.82101C4.98194 5.81798 5.01208 5.81185 5.04178 5.80255C5.68153 5.60205 6.33514 5.45217 6.99632 5.35343C7.0089 5.35155 7.02153 5.35 7.03411 5.34816C7.05471 5.34692 7.07497 5.34356 7.09563 5.33937C7.22806 5.32064 7.36077 5.30387 7.49374 5.28927C7.99233 5.23451 8.49452 5.20821 8.99744 5.21193H9.00359C9.50656 5.20821 10.0086 5.23449 10.5073 5.28927C10.6414 5.30401 10.7753 5.32131 10.9089 5.34025C10.9287 5.34406 10.9481 5.34703 10.9678 5.34816C11.6415 5.44681 12.3076 5.59831 12.9592 5.80255C12.9887 5.81179 13.0184 5.81795 13.048 5.82101C13.1075 5.82715 13.1666 5.82168 13.222 5.80519C13.3606 5.76396 13.4769 5.65634 13.5235 5.50812C13.5975 5.2711 13.4651 5.01816 13.2282 4.94386C12.6891 4.7749 12.1406 4.64097 11.5865 4.53956L12.0242 3.21681H12.025C12.0388 3.17956 12.0643 3.14769 12.0989 3.12804C12.1349 3.10774 12.178 3.10081 12.2184 3.10958L12.2193 3.11046C12.9659 3.27225 13.6973 3.49902 14.4041 3.78898C14.4081 3.79062 14.4123 3.79271 14.4164 3.79425C14.4365 3.80179 14.4554 3.81453 14.47 3.83028C14.4844 3.84599 14.4948 3.86519 14.5007 3.88566L14.5025 3.89181L17.0915 12.5367C17.1008 12.5675 17.1012 12.6007 17.0924 12.6317C17.0836 12.6626 17.0656 12.6903 17.0414 12.7116H17.0423C15.9311 13.678 14.3816 14.4432 12.5664 14.8878L12.5602 14.8896C12.5278 14.8979 12.4931 14.8949 12.4627 14.8808C12.4323 14.8665 12.4069 14.8417 12.3924 14.8113L12.388 14.8017L11.7394 13.5123C12.2415 13.4147 12.7387 13.2904 13.2282 13.137C13.4651 13.0628 13.5973 12.8097 13.5235 12.5728C13.4492 12.3357 13.1963 12.2033 12.9592 12.2775C11.6796 12.6786 10.3446 12.878 9.00359 12.8681H8.99744C7.65645 12.878 6.32144 12.6785 5.04178 12.2775C4.80473 12.2033 4.55275 12.3357 4.47845 12.5728C4.40434 12.8098 4.53583 13.0627 4.77286 13.137C5.2628 13.2906 5.76078 13.4138 6.26337 13.5114L5.61215 14.8017L5.60776 14.8105L6.01378 15.0038L5.60776 14.8113C5.5932 14.8418 5.568 14.8665 5.53745 14.8808C5.50696 14.8949 5.47243 14.8979 5.4399 14.8896L5.43375 14.8878C3.61893 14.4433 2.06987 13.6778 0.958699 12.7116C0.934638 12.6903 0.916553 12.6626 0.907726 12.6317C0.898975 12.6008 0.899385 12.5675 0.908605 12.5367L3.49766 3.89181L3.49942 3.88566C3.50532 3.86516 3.51577 3.84601 3.53018 3.83028C3.5448 3.81445 3.56362 3.80182 3.58379 3.79425C3.58794 3.79269 3.592 3.79066 3.59609 3.78898C4.30295 3.49897 5.03419 3.27227 5.78089 3.11046L5.78177 3.10958C5.82216 3.10073 5.86524 3.10777 5.90129 3.12804ZM11.4441 9.00002C10.938 9.00002 10.5275 9.41058 10.5275 9.91672C10.5276 10.4227 10.9381 10.8325 11.4441 10.8325C11.9501 10.8324 12.3597 10.4227 12.3599 9.91672C12.3599 9.41064 11.9501 9.00012 11.4441 9.00002ZM6.5569 9.00002C6.0508 9.00002 5.64027 9.41058 5.64027 9.91672C5.64041 10.4227 6.05088 10.8325 6.5569 10.8325C7.06283 10.8324 7.47252 10.4227 7.47265 9.91672C7.47265 9.41064 7.06292 9.00012 6.5569 9.00002Z" fill="white"/>
</g>
</svg>
