<svg preserveAspectRatio="none" width="100%" height="100%" overflow="visible" style="display: block;" viewBox="0 0 48 48" fill="none" xmlns="http://www.w3.org/2000/svg">
<g id="Frame 5">
<path d="M0 6C0 2.68629 2.68629 0 6 0H42C45.3137 0 48 2.68629 48 6V42C48 45.3137 45.3137 48 42 48H6C2.68629 48 0 45.3137 0 42V6Z" fill="var(--fill-0, #FCD72B)"/>
<path id="Vector" fill-rule="evenodd" clip-rule="evenodd" d="M18.6428 41.2002L20.0421 26.2566H19.9148C18.7942 26.2567 17.8674 25.8516 17.0145 25.1141C16.1616 24.3765 15.5955 23.3546 15.418 22.2318L18.0595 20.4988V20.4773C18.0594 19.2961 18.5087 18.1606 19.3135 17.3075C20.1185 16.4544 21.2169 15.9496 22.3796 15.8985V15.8937H23.1651V13.1037C23.7219 13.1037 24.2608 13.3039 24.6861 13.6687C25.1114 14.0335 25.3956 14.5393 25.4885 15.0966H25.5214V13.1037C25.9401 13.1037 26.3511 13.2169 26.7123 13.4316C27.0735 13.6463 27.3718 13.9547 27.5766 14.3252C27.7814 14.6958 27.8852 15.1149 27.8775 15.5397C27.8696 15.9644 27.7504 16.3794 27.5323 16.7418C28.2418 17.2124 28.8244 17.8551 29.2278 18.6117C29.6309 19.3683 29.8419 20.2149 29.8415 21.0751V39.1104C29.8415 39.3748 29.945 39.6282 30.129 39.8149C30.3133 40.0019 30.563 40.1068 30.8233 40.1068H31.9878C30.3523 40.9494 28.5707 41.541 26.6914 41.8324C35.1746 40.517 41.6731 33.0804 41.6731 24.1034C41.6731 14.1978 33.7605 6.16775 24 6.16775C14.2394 6.16775 6.32693 14.1978 6.32693 24.1034C6.32693 32.1138 11.5012 38.8977 18.6428 41.2002ZM20.7214 20.937C20.6203 21.0397 20.5634 21.1789 20.5632 21.3241L20.5137 21.8727H21.5937C21.8801 21.8727 22.1549 21.7572 22.3574 21.5515C22.5599 21.3459 22.6737 21.0671 22.6737 20.7763H21.1028C20.9597 20.7766 20.8226 20.8344 20.7214 20.937Z" fill="var(--fill-0, black)"/>
</g>
</svg>
