<svg width="24" height="24" viewBox="0 0 24 24" fill="none" xmlns="http://www.w3.org/2000/svg">
<path d="M0 12C0 5.37258 5.37258 0 12 0V0C18.6274 0 24 5.37258 24 12V12C24 18.6274 18.6274 24 12 24V24C5.37258 24 0 18.6274 0 12V12Z" fill="white"/>
<path fill-rule="evenodd" clip-rule="evenodd" d="M8.36247 23.5746L9.31255 13.5185H9.22614C8.46527 13.5186 7.83592 13.246 7.25685 12.7496C6.67771 12.2533 6.29337 11.5656 6.17281 10.8101L7.9664 9.64386V9.62937C7.96634 8.83454 8.27141 8.07042 8.81789 7.49635C9.36447 6.92222 10.1102 6.58258 10.8997 6.54818V6.54494H11.4331V4.66744C11.8112 4.66745 12.1771 4.80214 12.4658 5.04762C12.7546 5.29311 12.9476 5.63352 13.0107 6.0085H13.033V4.66744C13.3173 4.66745 13.5964 4.74361 13.8416 4.88807C14.0869 5.03255 14.2894 5.24012 14.4285 5.48946C14.5676 5.7388 14.638 6.02085 14.6328 6.30668C14.6274 6.59251 14.5465 6.87175 14.3984 7.11567C14.8801 7.43233 15.2757 7.8648 15.5496 8.37397C15.8234 8.88309 15.9666 9.45283 15.9663 10.0317V22.1682C15.9663 22.3461 16.0366 22.5167 16.1616 22.6423C16.2867 22.7682 16.4562 22.8387 16.633 22.8387H17.4237C16.3132 23.4057 15.1035 23.8039 13.8274 24C19.5875 23.1148 24 18.1104 24 12.0695C24 5.40371 18.6274 0 12 0C5.37257 0 0 5.40371 0 12.0695C0 17.46 3.51333 22.0251 8.36247 23.5746ZM9.77383 9.93874C9.70519 10.0079 9.66655 10.1015 9.66638 10.1992L9.63278 10.5684H10.3661C10.5606 10.5684 10.7472 10.4906 10.8847 10.3523C11.0222 10.2139 11.0994 10.0263 11.0994 9.83061H10.0328C9.93563 9.83077 9.84253 9.86967 9.77383 9.93874Z" fill="#FCD72B"/>
</svg>
