<svg preserveAspectRatio="none" width="100%" height="100%" overflow="visible" style="display: block;" viewBox="0 0 32.6152 32.6151" fill="none" xmlns="http://www.w3.org/2000/svg">
<g id="Group">
<path id="Vector" d="M9.97344 13.7052L16.3073 7.37151L22.6444 13.7085L26.3299 10.023L16.3073 0L6.2881 10.0197L9.97344 13.7052ZM0 16.3071L3.68562 12.6214L7.371 16.3068L3.68541 19.9924L0 16.3071ZM9.97344 18.9099L16.3073 25.2436L22.6443 18.9068L26.3317 22.5904L26.3299 22.5923L16.3073 32.6151L6.28777 22.5958L6.28255 22.5905L9.97344 18.9099ZM25.2442 16.3091L28.9298 12.6235L32.6152 16.3089L28.9296 19.9945L25.2442 16.3091Z" fill="var(--fill-0, white)"/>
<path id="Vector_2" d="M20.0449 16.3055H20.0466L16.3068 12.5657L13.5429 15.3295H13.5428L13.2253 15.6471L12.5704 16.3022L12.5651 16.3073L12.5704 16.3127L16.3068 20.0492L20.0466 16.3094L20.0484 16.3073L20.0449 16.3055" fill="var(--fill-0, white)"/>
</g>
</svg>
