<svg width="20" height="20" viewBox="0 0 20 20" fill="none" xmlns="http://www.w3.org/2000/svg">
<g clip-path="url(#clip0_23387_1425)">
<path d="M20 10C20 15.5225 15.5225 20 10 20C4.47746 20 0 15.5225 0 10C0 4.47746 4.47746 0 10 0C15.5237 0 20 4.47746 20 10Z" fill="#24A1DE"/>
<path d="M13.8661 5.5818C13.8661 5.5818 14.8942 5.18074 14.8085 6.15473C14.78 6.5558 14.523 7.95948 14.323 9.47777L13.6377 13.9753C13.6377 13.9753 13.5806 14.6342 13.0665 14.7488C12.5525 14.8634 11.7814 14.3477 11.6386 14.2331C11.5244 14.1472 9.49683 12.8581 8.78289 12.2279C8.58297 12.056 8.35451 11.7122 8.81144 11.3112L11.81 8.44649C12.1527 8.10273 12.4954 7.30062 11.0675 8.27461L7.06944 10.9961C7.06944 10.9961 6.61251 11.2825 5.7558 11.0247L3.89956 10.4518C3.89956 10.4518 3.21417 10.0221 4.38502 9.59234C7.24079 8.24594 10.7534 6.87089 13.8661 5.5818Z" fill="white"/>
</g>
<defs>
<clipPath id="clip0_23387_1425">
<rect width="20" height="20" fill="white"/>
</clipPath>
</defs>
</svg>
