<svg preserveAspectRatio="none" width="100%" height="100%" overflow="visible" style="display: block;" viewBox="0 0 20 20" fill="none" xmlns="http://www.w3.org/2000/svg">
<g id="Logo/Social" clip-path="url(#clip0_0_1014)">
<path id="Vector" d="M17.8808 8.33102C18.2983 7.07807 18.1545 5.70552 17.4869 4.56584C16.4829 2.8178 14.4647 1.91848 12.4935 2.34169C11.6166 1.35382 10.3568 0.792035 9.03596 0.800086C7.02112 0.795485 5.23341 2.09271 4.61354 4.0098C3.31919 4.27488 2.20194 5.08508 1.54815 6.23338C0.536708 7.97681 0.767287 10.1745 2.11857 11.6695C1.70111 12.9225 1.84486 14.295 2.51245 15.4347C3.51642 17.1828 5.53471 18.0821 7.50586 17.6589C8.38217 18.6467 9.6426 19.2085 10.9634 19.1999C12.9794 19.2051 14.7677 17.9067 15.3875 15.9879C16.6819 15.7228 17.7992 14.9126 18.4529 13.7643C19.4632 12.0209 19.2321 9.8249 17.8814 8.32987L17.8808 8.33102ZM10.9646 17.9976C10.1578 17.9987 9.37637 17.7164 8.75708 17.1994C8.78526 17.1845 8.83413 17.1575 8.86576 17.1379L12.5297 15.0219C12.7172 14.9155 12.8322 14.716 12.831 14.5003V9.33499L14.3796 10.2291C14.3962 10.2372 14.4072 10.2533 14.4095 10.2717V14.5492C14.4072 16.4513 12.8667 17.9935 10.9646 17.9976ZM3.5561 14.8333C3.15186 14.1352 3.00639 13.317 3.14496 12.5229C3.17199 12.539 3.21971 12.5683 3.25364 12.5878L6.91762 14.7039C7.10335 14.8126 7.33335 14.8126 7.51966 14.7039L11.9927 12.1209V13.9092C11.9938 13.9276 11.9852 13.9454 11.9708 13.9569L8.26717 16.0954C6.61746 17.0453 4.51062 16.4807 3.55667 14.8333H3.5561ZM2.5918 6.83541C2.99431 6.1362 3.6297 5.60144 4.38641 5.32371C4.38641 5.35533 4.38469 5.41111 4.38469 5.45021V9.68287C4.38354 9.89793 4.49854 10.0975 4.68542 10.2038L9.15844 12.7862L7.60993 13.6804C7.59441 13.6907 7.57486 13.6924 7.55761 13.685L3.85338 11.5448C2.20712 10.5914 1.64246 8.48512 2.59123 6.83599L2.5918 6.83541ZM15.3145 9.79615L10.8415 7.2132L12.39 6.31963C12.4055 6.30928 12.4251 6.30755 12.4423 6.31503L16.1466 8.4535C17.7957 9.40629 18.3609 11.516 17.4081 13.1651C17.0051 13.8632 16.3702 14.398 15.6141 14.6763V10.3171C15.6158 10.1021 15.5014 9.9031 15.3151 9.79615H15.3145ZM16.8556 7.47655C16.8285 7.45988 16.7808 7.43113 16.7469 7.41158L13.0829 5.29553C12.8972 5.18685 12.6672 5.18685 12.4809 5.29553L8.00784 7.87849V6.0902C8.00669 6.0718 8.01532 6.05397 8.02969 6.04247L11.7333 3.90573C13.3831 2.95408 15.4922 3.52047 16.4433 5.17075C16.8452 5.86767 16.9907 6.68361 16.8544 7.47655H16.8556ZM7.16602 10.6638L5.61694 9.7697C5.60027 9.76165 5.58934 9.74555 5.58704 9.72715V5.44963C5.58819 3.54519 7.13325 2.00186 9.03769 2.00301C9.84328 2.00301 10.623 2.28592 11.2423 2.80113C11.2141 2.81608 11.1658 2.8431 11.1336 2.86265L7.46963 4.9787C7.28218 5.08508 7.16717 5.28403 7.16832 5.49966L7.16602 10.6627V10.6638ZM8.00727 8.85026L9.99968 7.69966L11.9921 8.84968V11.1503L9.99968 12.3003L8.00727 11.1503V8.85026Z" fill="black"/>
</g>
<defs>
<clipPath id="clip0_0_1014">
<rect width="20" height="20" fill="white"/>
</clipPath>
</defs>
</svg>
