<svg width="24" height="24" viewBox="0 0 24 24" fill="none" xmlns="http://www.w3.org/2000/svg">
<path d="M0 12C0 5.37258 5.37258 0 12 0V0C18.6274 0 24 5.37258 24 12V12C24 18.6274 18.6274 24 12 24V24C5.37258 24 0 18.6274 0 12V12Z" fill="black"/>
<path d="M15.5762 13.557V9.23975H16.4442V13.557H15.5762Z" fill="#F7A600"/>
<path d="M5.45974 14.8405H3.59961V10.5232H5.38508C6.25308 10.5232 6.75801 10.9964 6.75801 11.7364C6.75801 12.2152 6.43321 12.525 6.20921 12.6277C6.47708 12.749 6.82054 13.0225 6.82054 13.5983C6.82054 14.4037 6.25214 14.8395 5.45974 14.8395M5.31601 11.2745H4.46668V12.2684H5.31601C5.68468 12.2684 5.89001 12.0687 5.89001 11.771C5.89001 11.4751 5.68468 11.2745 5.31601 11.2745ZM5.37201 13.0262H4.46668V14.0873H5.37201C5.76401 14.0873 5.95254 13.8456 5.95254 13.5544C5.95254 13.2632 5.76494 13.0271 5.37201 13.0271V13.0262ZM9.46748 13.0691V14.8405H8.60601V13.0691L7.27041 10.5232H8.21308L9.04281 12.2628L9.86134 10.5232H10.804L9.46748 13.0691ZM13.2643 14.8405H11.4041V10.5232H13.1896C14.0576 10.5232 14.5616 10.9964 14.5616 11.7364C14.5616 12.2152 14.2377 12.525 14.0128 12.6277C14.2807 12.749 14.6241 13.0225 14.6241 13.5983C14.6241 14.4037 14.0567 14.8395 13.2643 14.8395M13.1196 11.2745H12.2703V12.2684H13.1196C13.4883 12.2684 13.6945 12.0687 13.6945 11.771C13.6945 11.4751 13.4892 11.2745 13.1196 11.2745ZM13.1756 13.0262H12.2703V14.0873H13.1756C13.5695 14.0873 13.7561 13.8456 13.7561 13.5544C13.7561 13.2632 13.5695 13.0271 13.1756 13.0271V13.0262ZM19.2376 11.2754V14.8405H18.3705V11.2754H17.2085V10.5232H20.3996V11.2754H19.2376Z" fill="white"/>
</svg>
