<svg width="20" height="20" viewBox="0 0 20 20" fill="none" xmlns="http://www.w3.org/2000/svg">
<path transform="translate(3.064 0.684)" d="M13.4403 9.51855C13.7141 9.55217 13.9092 9.80124 13.8758 10.0752C13.6738 11.732 12.8533 13.2563 11.574 14.3604C10.4195 15.3567 8.9628 15.9469 7.43537 16.0527V18.3994C7.43537 18.6756 7.21151 18.8994 6.93537 18.8994C6.65926 18.8994 6.43537 18.6755 6.43537 18.3994V16.0527C4.91105 15.9453 3.45791 15.3548 2.30549 14.3604C1.02618 13.2563 0.205742 11.7321 0.00372825 10.0752C-0.0296844 9.80111 0.165199 9.552 0.439275 9.51855C0.713204 9.48539 0.962483 9.68016 0.995916 9.9541C1.16729 11.3598 1.86428 12.659 2.95881 13.6035C4.05369 14.5482 5.47071 15.0723 6.94025 15.0723C8.40958 15.0721 9.82602 14.5482 10.9207 13.6035C12.0151 12.659 12.7123 11.3598 12.8836 9.9541C12.9171 9.68006 13.1662 9.48517 13.4403 9.51855ZM6.93928 0C9.17886 9.17421e-05 11.0396 1.73065 11.0399 3.91895V9.39062C11.0397 11.579 9.17889 13.3095 6.93928 13.3096C4.69976 13.3094 2.83985 11.5789 2.83967 9.39062V3.91895C2.83989 1.73072 4.69979 0.000201162 6.93928 0ZM6.93928 1C5.20296 1.0002 3.8399 2.33088 3.83967 3.91895V9.39062C3.83985 10.9787 5.20293 12.3094 6.93928 12.3096C8.67573 12.3095 10.0397 10.9788 10.0399 9.39062V3.91895C10.0396 2.33081 8.6757 1.00009 6.93928 1Z" fill="black"/>
</svg>
