<svg width="18" height="18" viewBox="0 0 18 18" fill="none" xmlns="http://www.w3.org/2000/svg">
<path d="M3.9749 3.97547C4.15057 3.79991 4.43549 3.79991 4.61123 3.97547C4.78666 4.15115 4.78675 4.43611 4.61123 4.6118C3.44808 5.77621 2.79453 7.35522 2.79453 9.00106C2.79472 10.6467 3.44817 12.2252 4.61123 13.3894C4.78665 13.5652 4.78673 13.8501 4.61123 14.0258C4.43552 14.2012 4.15054 14.2012 3.9749 14.0258C2.6432 12.6927 1.89472 10.8853 1.89453 9.00106C1.89453 7.11665 2.64313 5.30864 3.9749 3.97547Z" fill="black" fill-opacity="0.9"/>
<path d="M13.3889 3.97547C13.5646 3.79988 13.8495 3.79981 14.0252 3.97547C15.357 5.30864 16.1056 7.11667 16.1056 9.00106C16.1054 10.8853 15.3569 12.6927 14.0252 14.0258C13.8496 14.2013 13.5646 14.2012 13.3889 14.0258C13.2132 13.8501 13.2133 13.5652 13.3889 13.3894C14.5519 12.2252 15.2054 10.6467 15.2056 9.00106C15.2056 7.35528 14.5519 5.77619 13.3889 4.6118C13.2133 4.43605 13.2133 4.15114 13.3889 3.97547Z" fill="black" fill-opacity="0.9"/>
<path d="M5.75645 5.75702C5.93206 5.58145 6.217 5.58153 6.39277 5.75702C6.56819 5.93264 6.56821 6.21762 6.39277 6.39334C5.70231 7.08514 5.31436 8.02276 5.31436 9.00018C5.31444 9.97756 5.70229 10.9153 6.39277 11.607C6.56811 11.7828 6.56829 12.0678 6.39277 12.2433C6.21703 12.4186 5.93202 12.4187 5.75645 12.2433C4.89737 11.3828 4.41444 10.2161 4.41436 9.00018C4.41436 7.78422 4.89739 6.61757 5.75645 5.75702Z" fill="black" fill-opacity="0.9"/>
<path d="M11.6064 5.75702C11.7822 5.58151 12.0672 5.5814 12.2428 5.75702C13.1018 6.61757 13.5849 7.78426 13.5849 9.00018C13.5848 10.2161 13.1019 11.3828 12.2428 12.2433C12.0672 12.4188 11.7822 12.4186 11.6064 12.2433C11.4308 12.0678 11.431 11.7828 11.6064 11.607C12.2969 10.9153 12.6848 9.97755 12.6849 9.00018C12.6849 8.02282 12.2968 7.08513 11.6064 6.39334C11.431 6.21757 11.4309 5.93263 11.6064 5.75702Z" fill="black" fill-opacity="0.9"/>
<path fill-rule="evenodd" clip-rule="evenodd" d="M8.99961 6.75018C10.2422 6.75018 11.2496 7.75754 11.2496 9.00018C11.2495 10.2428 10.2422 11.2502 8.99961 11.2502C7.75701 11.2502 6.74967 10.2428 6.74961 9.00018C6.74961 7.75754 7.75697 6.75018 8.99961 6.75018ZM8.99961 7.65018C8.25402 7.65018 7.64961 8.2546 7.64961 9.00018C7.64967 9.74571 8.25406 10.3502 8.99961 10.3502C9.74516 10.3502 10.3495 9.74571 10.3496 9.00018C10.3496 8.2546 9.74519 7.65018 8.99961 7.65018Z" fill="black" fill-opacity="0.9"/>
</svg>
