<svg preserveAspectRatio="none" width="100%" height="100%" overflow="visible" style="display: block;" viewBox="0 0 24 24" fill="none" xmlns="http://www.w3.org/2000/svg">
<g id="file-f">
<path id="Subtract" d="M16.3031 1.8C16.6213 1.80005 16.9266 1.92656 17.1516 2.15156L20.6484 5.64844C20.8734 5.87344 21 6.17868 21 6.49687V20.4C21 21.3941 20.1941 22.2 19.2 22.2H4.8C3.80589 22.2 3 21.3941 3 20.4V3.6C3 2.60589 3.80589 1.8 4.8 1.8H16.3031ZM7.8 15.6C7.46863 15.6 7.2 15.8686 7.2 16.2C7.2 16.5314 7.46863 16.8 7.8 16.8H16.2C16.5314 16.8 16.8 16.5314 16.8 16.2C16.8 15.8686 16.5314 15.6 16.2 15.6H7.8ZM7.8 12C7.46863 12 7.2 12.2686 7.2 12.6C7.2 12.9314 7.46863 13.2 7.8 13.2H16.2C16.5314 13.2 16.8 12.9314 16.8 12.6C16.8 12.2686 16.5314 12 16.2 12H7.8ZM7.8 8.4C7.46863 8.4 7.2 8.66863 7.2 9C7.2 9.33137 7.46863 9.6 7.8 9.6H12.6C12.9314 9.6 13.2 9.33137 13.2 9C13.2 8.66863 12.9314 8.4 12.6 8.4H7.8ZM16.0102 2.81016C15.8591 2.65908 15.6004 2.76543 15.6 2.97891V6.95977C15.6 7.09231 15.7077 7.2 15.8402 7.2H19.8211C20.0346 7.19959 20.1409 6.94092 19.9898 6.78984L16.0102 2.81016Z" fill="var(--fill-0, black)" fill-opacity="0.2"/>
</g>
</svg>
