<svg width="18" height="18" viewBox="0 0 18 18" fill="none" xmlns="http://www.w3.org/2000/svg">
<path d="M14.7607 9.3606C15.2858 9.36064 15.7899 9.56939 16.1611 9.94067C16.5323 10.312 16.7412 10.816 16.7412 11.3411V12.2522C17.451 12.341 18.0006 12.9452 18.001 13.679V16.1096C18.0009 16.9049 17.3558 17.55 16.5605 17.55H12.9609C12.1658 17.5499 11.5215 16.9048 11.5215 16.1096V13.679C11.5219 12.9449 12.0711 12.3397 12.7812 12.2512V11.3411C12.7812 10.8159 12.99 10.312 13.3613 9.94067C13.7326 9.56949 14.2358 9.36069 14.7607 9.3606ZM12.9609 13.1399C12.6631 13.1401 12.4213 13.3812 12.4209 13.679V16.1096C12.4209 16.4077 12.6629 16.6495 12.9609 16.6497H16.5605C16.8588 16.6495 17.1015 16.4078 17.1016 16.1096V13.679C17.1011 13.3811 16.8585 13.1399 16.5605 13.1399H12.9609ZM10.1709 11.4788H3.74707L6.5293 14.261C6.70484 14.4366 6.70469 14.722 6.5293 14.8977C6.35366 15.0731 6.06925 15.073 5.89355 14.8977L2.34277 11.3469C2.21414 11.2183 2.17561 11.0248 2.24512 10.8567C2.3148 10.6889 2.47843 10.5785 2.66016 10.5784H10.1709V11.4788ZM14.7607 10.26C14.4745 10.2601 14.1995 10.374 13.9971 10.5764C13.7945 10.779 13.6807 11.0546 13.6807 11.3411V12.2395H15.8408V11.3411C15.8408 11.0547 15.7268 10.7789 15.5244 10.5764C15.322 10.3742 15.0469 10.2601 14.7607 10.26ZM11.8184 3.10181C11.9941 2.9261 12.2793 2.92615 12.4551 3.10181L15.9141 6.55981C16.0425 6.68851 16.0803 6.883 16.0107 7.05103C15.941 7.21861 15.7773 7.32819 15.5957 7.32837H2.40625C2.15799 7.32821 1.95725 7.12641 1.95703 6.87817C1.95725 6.62993 2.15799 6.42814 2.40625 6.42798H14.5088L11.8184 3.73853C11.6428 3.56293 11.6431 3.27755 11.8184 3.10181Z" fill="black"/>
</svg>
