<svg preserveAspectRatio="none" width="100%" height="100%" overflow="visible" style="display: block;" viewBox="0 0 24 24" fill="none" xmlns="http://www.w3.org/2000/svg">
<g id="photo-f">
<path id="Subtract" d="M20.1602 2.40039C21.4854 2.4006 22.5595 3.47454 22.5596 4.7998V19.2002C22.5595 20.5255 21.4854 21.5994 20.1602 21.5996H3.83984C2.51461 21.5994 1.44053 20.5255 1.44043 19.2002V4.7998C1.44054 3.47454 2.51461 2.4006 3.83984 2.40039H20.1602ZM9.57715 9.92578C9.39222 9.61024 8.97602 9.61034 8.79102 9.92578L4.72168 16.8232C4.44424 17.2741 4.76837 17.8604 5.32324 17.8604H18.7324C19.2409 17.8603 19.5184 17.3647 19.2412 16.959L15.5879 11.2783C15.4029 11.0079 14.9867 11.0078 14.8018 11.2783L12.8135 14.0732C12.6285 14.3437 12.2123 14.2988 12.0273 14.0283L9.57715 9.92578ZM17.5303 6.13867C16.513 6.13867 15.6807 6.95054 15.6807 7.94238C15.6808 8.93411 16.5131 9.74512 17.5303 9.74512C18.5474 9.745 19.3797 8.93404 19.3799 7.94238C19.3799 6.95061 18.5474 6.13879 17.5303 6.13867Z" fill="var(--fill-0, black)" fill-opacity="0.2"/>
</g>
</svg>
