<svg preserveAspectRatio="none" width="100%" height="100%" overflow="visible" style="display: block;" viewBox="0 0 18 18" fill="none" xmlns="http://www.w3.org/2000/svg">
<g id="project-imessage-l">
<path id="Vector" d="M9 1.73672C13.244 1.73677 16.7827 4.69723 16.7827 8.45771C16.7827 12.2193 13.2441 15.1795 9 15.1796C8.40645 15.1796 7.82738 15.1214 7.27119 15.0135C6.85099 15.6101 6.18799 15.9311 5.5582 16.0972C4.93654 16.2547 4.2917 16.3028 3.65361 16.2387L2.89248 16.1534L3.45234 15.6296L3.45146 15.6278L3.45322 15.6261L3.46201 15.619L3.49541 15.5856C3.68039 15.3994 3.85161 15.1998 4.00781 14.9889C4.25265 14.6569 4.45899 14.2885 4.52021 13.9544C2.53828 12.7476 1.21733 10.7459 1.21729 8.45684C1.21729 4.69629 4.75589 1.73672 9 1.73672ZM9 2.63672C5.11553 2.63672 2.11729 5.32044 2.11729 8.45684C2.11733 10.378 3.22554 12.1118 4.98867 13.1854C5.30705 13.3793 5.47247 13.7503 5.40527 14.117C5.32411 14.5594 5.10073 14.9761 4.87354 15.3158C5.02913 15.293 5.1838 15.2632 5.33672 15.2244C5.85811 15.0857 6.28741 14.8481 6.53555 14.4958L6.61904 14.3938C6.82851 14.1734 7.13823 14.0711 7.44258 14.1302C7.94347 14.2274 8.46518 14.2796 9 14.2796C12.8841 14.2795 15.8827 11.5954 15.8827 8.45771C15.8827 5.3212 12.8842 2.63677 9 2.63672Z" fill="white" fill-opacity="0.9"/>
</g>
</svg>
