<svg preserveAspectRatio="none" width="100%" height="100%" overflow="visible" style="display: block;" viewBox="0 0 34.2 34.2" fill="none" xmlns="http://www.w3.org/2000/svg">
<g id="logo-social-imessage">
<path id="rect826" d="M26.6679 0H7.53214C3.37226 0 0 3.37226 0 7.53215V26.6679C0 30.8277 3.37226 34.2 7.53214 34.2H26.6679C30.8277 34.2 34.2 30.8277 34.2 26.6679V7.53215C34.2 3.37226 30.8277 0 26.6679 0Z" fill="url(#paint0_linear_0_196)"/>
<path id="path922" d="M17.1002 5.92031C13.771 5.92034 10.5782 7.0219 8.2241 8.9827C5.87001 10.9435 4.54748 13.6029 4.54746 16.3759C4.55049 18.1796 5.11367 19.9519 6.18225 21.5207C7.25083 23.0895 8.78848 24.4014 10.6457 25.3288C10.1511 26.4362 9.4092 27.4747 8.4508 28.4012C10.3094 28.0749 12.054 27.3895 13.549 26.3984C14.7017 26.6837 15.8977 26.8295 17.1002 26.8315C20.4294 26.8315 23.6222 25.7299 25.9763 23.7691C28.3304 21.8083 29.6529 19.1489 29.6529 16.3759C29.6529 13.6029 28.3304 10.9435 25.9763 8.9827C23.6222 7.0219 20.4294 5.92034 17.1002 5.92031Z" fill="var(--fill-0, white)"/>
</g>
<defs>
<linearGradient id="paint0_linear_0_196" x1="17.3714" y1="31.9298" x2="17.3714" y2="4.24438" gradientUnits="userSpaceOnUse">
<stop stop-color="#0CBD2A"/>
<stop offset="1" stop-color="#5BF675"/>
</linearGradient>
</defs>
</svg>
