<svg preserveAspectRatio="none" width="100%" height="100%" overflow="visible" style="display: block;" viewBox="0 0 18 18" fill="none" xmlns="http://www.w3.org/2000/svg">
<g id="project-telegram-l">
<path id="Vector" d="M15.9403 2.30361C16.1743 2.32403 16.4694 2.40806 16.6874 2.66484C16.9044 2.92086 16.9756 3.26694 16.9422 3.6624C16.9212 3.9578 16.8209 4.59528 16.6979 5.37803C16.5726 6.17559 16.4189 7.15642 16.2848 8.17471L16.2839 8.18438L15.3584 14.255C15.3574 14.2642 15.3567 14.2756 15.3549 14.2884C15.3502 14.3217 15.3426 14.3672 15.3312 14.4211C15.3087 14.5279 15.2689 14.675 15.2002 14.8315C15.0658 15.138 14.7856 15.5485 14.2405 15.67C13.7361 15.7824 13.1817 15.5854 12.8 15.4063C12.4074 15.2223 12.0767 14.9976 11.9448 14.8939C11.9424 14.8923 11.9311 14.8853 11.9061 14.8685C11.879 14.8502 11.8426 14.8255 11.7971 14.7955C11.7062 14.7355 11.5839 14.6558 11.4368 14.5591C11.143 14.3661 10.7541 14.1099 10.3399 13.8305C9.521 13.278 8.5712 12.6139 8.06353 12.1658V12.1649C7.89449 12.0186 7.66046 11.7583 7.60298 11.3959C7.53949 10.9951 7.70918 10.6048 8.08901 10.2656C8.30019 10.0638 9.31785 9.00996 10.3293 7.94795C10.1842 8.03975 10.0374 8.1329 9.88989 8.22656C8.28378 9.24633 6.61473 10.3239 6.30132 10.5372L6.29429 10.5425L6.28726 10.5469L6.28638 10.5478H6.2855L6.27759 10.553C6.2739 10.5552 6.26931 10.5573 6.2644 10.5601C6.2543 10.5658 6.24185 10.5733 6.22661 10.5812C6.19597 10.597 6.1547 10.6166 6.10356 10.6374C6.0009 10.6791 5.85716 10.7262 5.67466 10.7587C5.30681 10.8242 4.79147 10.8292 4.14536 10.6348L4.14272 10.6339L1.63696 9.86133L1.58071 9.84375L1.53062 9.81211L1.52886 9.81123L1.50513 9.79541C1.49308 9.78714 1.47724 9.77564 1.45942 9.76201C1.42437 9.73518 1.37761 9.69623 1.32847 9.646C1.23772 9.5532 1.09803 9.37975 1.0604 9.13711C1.01793 8.86257 1.11953 8.59798 1.33726 8.37949C1.53348 8.18264 1.83025 8.01481 2.23286 7.86357C6.10037 6.04016 10.8615 4.17703 15.05 2.44248L15.0587 2.43896L15.2222 2.8582L15.0587 2.43809H15.0596L15.0675 2.43545C15.072 2.43376 15.078 2.43097 15.0851 2.42842C15.0993 2.42333 15.1186 2.41675 15.1422 2.40908C15.1894 2.39377 15.2555 2.37391 15.3338 2.35547C15.485 2.31989 15.7071 2.28328 15.9403 2.30361ZM15.8621 3.2001C15.763 3.19147 15.6457 3.20696 15.5404 3.23174C15.4904 3.24351 15.4482 3.25598 15.42 3.26514C15.4065 3.26952 15.3962 3.27261 15.3901 3.2748C11.1767 5.01962 6.45727 6.86773 2.61694 8.67832L2.59849 8.68623L2.58003 8.69326C2.21167 8.82846 2.0432 8.94599 1.97446 9.01494C1.97372 9.01569 1.97254 9.01598 1.97183 9.0167C1.9748 9.01974 1.97855 9.02183 1.98149 9.02461L4.40991 9.77432C4.91753 9.92629 5.28758 9.91346 5.51645 9.87275C5.63241 9.85212 5.71526 9.82322 5.76431 9.80332C5.78862 9.79345 5.80503 9.78616 5.81265 9.78223H5.81177C6.17639 9.53587 7.83059 8.46833 9.40737 7.46719C10.2101 6.95751 10.9969 6.46217 11.5879 6.09873C11.8827 5.91745 12.1322 5.76727 12.3113 5.66367C12.3998 5.6125 12.4771 5.5691 12.5363 5.53887C12.564 5.52472 12.5991 5.50763 12.6338 5.49404C12.6488 5.48819 12.683 5.4753 12.7252 5.4668C12.7454 5.46276 12.789 5.45493 12.8439 5.45801C12.8884 5.46051 13.0233 5.47417 13.1392 5.58984C13.2754 5.72604 13.2749 5.88881 13.2702 5.94668C13.2649 6.0111 13.2472 6.05976 13.2394 6.07939C13.2225 6.12203 13.202 6.15465 13.1946 6.16641C13.1759 6.19575 13.1548 6.224 13.1392 6.24375C13.1052 6.28691 13.0577 6.34133 13.0039 6.40283C12.8943 6.52791 12.7372 6.70141 12.5486 6.90557C12.1704 7.31498 11.6578 7.85966 11.13 8.41465C10.0795 9.51936 8.95141 10.6857 8.7104 10.916L8.70337 10.923L8.69634 10.9292C8.57917 11.032 8.52934 11.111 8.50825 11.1595C8.48898 11.2038 8.48894 11.2332 8.49243 11.2553C8.49959 11.2999 8.53088 11.359 8.58823 11.4223L8.65415 11.4873L8.65855 11.4908C9.11458 11.8934 10.0148 12.5252 10.8435 13.0843C11.2531 13.3606 11.6379 13.6144 11.9307 13.8067L12.4862 14.175L12.4967 14.1838C12.5656 14.239 12.8439 14.4329 13.1823 14.5916C13.5423 14.7604 13.855 14.8332 14.0445 14.7911C14.1931 14.758 14.2983 14.647 14.3758 14.4703C14.4131 14.3853 14.4369 14.3004 14.4505 14.2356C14.4572 14.204 14.4606 14.1786 14.4628 14.1627C14.4639 14.1549 14.4652 14.1495 14.4655 14.1469V14.1451L14.4664 14.1337L14.469 14.1187L15.3936 8.04814C15.529 7.02069 15.6836 6.03313 15.8084 5.23828C15.936 4.42623 16.0274 3.84501 16.0449 3.59912L16.0458 3.59209C16.0685 3.33381 16.0098 3.25712 16.0009 3.24668C15.9911 3.23517 15.9602 3.20866 15.8621 3.2001ZM5.81528 9.78047C5.81462 9.78087 5.81357 9.78166 5.81265 9.78223C5.81591 9.78054 5.81792 9.77959 5.81792 9.77959C5.81766 9.77974 5.81647 9.77976 5.81528 9.78047Z" fill="white" fill-opacity="0.9"/>
</g>
</svg>
