<svg width="24" height="24" viewBox="0 0 24 24" fill="none" xmlns="http://www.w3.org/2000/svg">
<path d="M0 12C0 5.37258 5.37258 0 12 0V0C18.6274 0 24 5.37258 24 12V12C24 18.6274 18.6274 24 12 24V24C5.37258 24 0 18.6274 0 12V12Z" fill="#0052FF"/>
<path d="M18.805 11.1433H15.3207C15.1121 10.3353 14.616 9.63116 13.9253 9.1628C13.2346 8.69445 12.3969 8.49407 11.569 8.59922C10.7412 8.70437 9.98012 9.10783 9.42847 9.73398C8.87683 10.3601 8.57248 11.166 8.57248 12.0005C8.57248 12.835 8.87683 13.6408 9.42847 14.2669C9.98012 14.8931 10.7412 15.2966 11.569 15.4017C12.3969 15.5069 13.2346 15.3065 13.9253 14.8381C14.616 14.3698 15.1121 13.6656 15.3207 12.8576H18.805C18.587 14.5882 17.7176 16.1707 16.3739 17.2829C15.0302 18.3951 13.3131 18.9534 11.5723 18.8441C9.83139 18.7349 8.19758 17.9664 7.00343 16.6949C5.80927 15.4235 5.14453 13.7448 5.14453 12.0005C5.14453 10.2562 5.80927 8.57744 7.00343 7.30601C8.19758 6.03457 9.83139 5.26601 11.5723 5.15678C13.3131 5.04755 15.0302 5.60585 16.3739 6.71805C17.7176 7.83024 18.587 9.41271 18.805 11.1433Z" fill="white"/>
</svg>
