<svg preserveAspectRatio="none" width="100%" height="100%" overflow="visible" style="display: block;" viewBox="0 0 20 20" fill="none" xmlns="http://www.w3.org/2000/svg">
<g id="Tesla" clip-path="url(#clip0_0_49)">
<path id="Vector" d="M0 0H20V20H0V0Z" fill="var(--fill-0, #E82127)"/>
<path id="Vector_2" d="M10 16.4286L11.6071 7.5C13.1311 7.5 13.605 7.52571 13.6743 8.21071C13.6743 8.21071 14.6968 7.82786 15.2121 7.05C13.2004 6.11429 11.1786 6.07143 11.1786 6.07143L10 7.5L8.82143 6.07143C8.82143 6.07143 6.8 6.11357 4.78821 7.05C5.30321 7.8275 6.32607 8.21071 6.32607 8.21071C6.39571 7.525 6.87929 7.50107 8.39286 7.5L10 16.4286Z" fill="var(--fill-0, white)"/>
<path id="Vector_3" d="M10 5.69536C11.6264 5.68286 13.4514 5.95143 15.3571 6.78571C15.6118 6.325 15.7143 6.07143 15.7143 6.07143C13.6311 5.24357 11.68 5.00714 10 5C8.31964 5.00714 6.36893 5.24357 4.28571 6.07143C4.28571 6.07143 4.41571 6.3725 4.64286 6.78571C6.54821 5.95143 8.37357 5.68286 10 5.69536Z" fill="var(--fill-0, white)"/>
</g>
<defs>
<clipPath id="clip0_0_49">
<rect width="20" height="20" fill="white"/>
</clipPath>
</defs>
</svg>
