<svg width="24" height="24" viewBox="0 0 24 24" fill="none" xmlns="http://www.w3.org/2000/svg">
<path d="M0 12C0 5.37258 5.37258 0 12 0V0C18.6274 0 24 5.37258 24 12V12C24 18.6274 18.6274 24 12 24V24C5.37258 24 0 18.6274 0 12V12Z" fill="#002823"/>
<path d="M19.3706 11.9322C19.3706 16.749 16.4229 18.2946 14.8697 16.9184C13.5913 15.7962 13.2109 13.4249 11.288 13.1814C8.84738 12.8744 8.63606 16.1244 7.03011 16.1244C5.16001 16.1244 4.80078 13.4037 4.80078 12.0063C4.80078 10.5771 5.20227 8.62917 6.79766 8.62917C8.6572 8.62917 8.76285 11.4134 11.0873 11.2652C13.4011 11.1064 13.4434 8.20571 14.9437 6.96709C16.2538 5.89784 19.3706 7.05177 19.3706 11.9322Z" fill="#71FFE3"/>
</svg>
