<svg width="24" height="24" viewBox="0 0 24 24" fill="none" xmlns="http://www.w3.org/2000/svg">
<path d="M0 12C0 5.37258 5.37258 0 12 0V0C18.6274 0 24 5.37258 24 12V12C24 18.6274 18.6274 24 12 24V24C5.37258 24 0 18.6274 0 12V12Z" fill="#03AAC1"/>
<path d="M12.7931 14.2014H8.93792L4.99402 10.2538C4.73747 9.99695 4.73615 9.57927 4.99141 9.32116L10.0492 4.19995H14.0206L12.8199 5.37581L8.41166 9.78864L12.7639 14.2015M11.2085 9.79884H15.0637L19.0076 13.7465C19.2641 14.0033 19.2654 14.4209 19.0101 14.6791L13.9524 19.8H9.98097L11.1816 18.6241L15.5899 14.2113L11.2377 9.79844" fill="black"/>
</svg>
