<svg preserveAspectRatio="none" width="100%" height="100%" overflow="visible" style="display: block;" viewBox="0 0 20 20" fill="none" xmlns="http://www.w3.org/2000/svg">
<g id="Apple Inc" clip-path="url(#clip0_0_46)">
<path id="Vector" d="M0 0H20V20H0V0Z" fill="url(#paint0_linear_0_46)"/>
<path id="Vector_2" d="M14.6429 11.7814C14.5814 11.9546 14.5168 12.12 14.4486 12.2786C14.2871 12.6433 14.0883 12.9904 13.8554 13.3143C13.5443 13.7464 13.2889 14.045 13.0921 14.2107C12.7875 14.4836 12.4607 14.6232 12.1107 14.6307C11.8596 14.6307 11.5571 14.5614 11.2043 14.4207C10.8507 14.2804 10.5257 14.2111 10.2286 14.2111C9.91714 14.2111 9.58286 14.2804 9.225 14.4207C8.86714 14.5614 8.57857 14.635 8.35821 14.6421C8.0225 14.6561 7.68857 14.5129 7.35464 14.2111C7.14179 14.0304 6.87536 13.7207 6.55607 13.2825C6.21357 12.8146 5.93214 12.2711 5.71179 11.6518C5.47536 10.9832 5.35714 10.3357 5.35714 9.70893C5.35714 8.99107 5.51679 8.37179 5.83643 7.85286C6.08068 7.44288 6.42659 7.10287 6.84071 6.86571C7.2533 6.62635 7.72089 6.49801 8.19786 6.49321C8.46429 6.49321 8.81357 6.57357 9.24786 6.73071C9.68071 6.88893 9.95857 6.96893 10.0807 6.96893C10.1718 6.96893 10.4807 6.87536 11.0039 6.68857C11.4989 6.51536 11.9168 6.44357 12.2593 6.47179C13.1868 6.54464 13.8832 6.90036 14.3468 7.54036C13.5175 8.02893 13.1075 8.71286 13.1154 9.59036C13.1229 10.2743 13.3779 10.8436 13.8793 11.2954C14.1025 11.5019 14.3612 11.6666 14.6429 11.7814ZM12.31 3.92857C12.3171 4 12.3207 4.07179 12.3207 4.14286C12.3207 4.67857 12.1196 5.17929 11.7186 5.64214C11.2339 6.19286 10.6479 6.51071 10.0121 6.46071C10.0036 6.39331 9.99931 6.32544 9.99929 6.2575C9.99929 5.74321 10.2296 5.1925 10.6389 4.7425C10.8432 4.51464 11.1032 4.325 11.4175 4.17393C11.7325 4.025 12.0304 3.94286 12.31 3.92857Z" fill="var(--fill-0, white)"/>
</g>
<defs>
<linearGradient id="paint0_linear_0_46" x1="3.72071" y1="3.46857" x2="24.3382" y2="27.1489" gradientUnits="userSpaceOnUse">
<stop stop-color="#1A1E21"/>
<stop offset="1" stop-color="#06060A"/>
</linearGradient>
<clipPath id="clip0_0_46">
<rect width="20" height="20" fill="white"/>
</clipPath>
</defs>
</svg>
