<svg width="24" height="24" viewBox="0 0 24 24" fill="none" xmlns="http://www.w3.org/2000/svg">
<path d="M0 12C0 5.37258 5.37258 0 12 0V0C18.6274 0 24 5.37258 24 12V12C24 18.6274 18.6274 24 12 24V24C5.37258 24 0 18.6274 0 12V12Z" fill="black"/>
<path d="M14.1338 10.27V13.7217C14.1338 13.8818 14.0093 13.9885 13.8492 13.9885H10.1485C9.98834 13.9885 9.8638 13.8818 9.8638 13.7217V10.27C9.8638 10.1277 9.98834 10.0032 10.1485 10.0032H13.8492C14.0093 10.0032 14.1338 10.1099 14.1338 10.27ZM9.8638 6.26688V9.73629C9.8638 9.87863 9.73926 10.0032 9.57913 10.0032H5.87842C5.71829 10.0032 5.59375 9.87863 5.59375 9.73629V6.26688C5.59375 6.12454 5.71829 6 5.87842 6H9.57913C9.73926 6 9.8638 6.12454 9.8638 6.26688ZM18.4039 6.26688V9.73629C18.4039 9.87863 18.2794 10.0032 18.1192 10.0032H14.4185C14.2584 10.0032 14.1338 9.87863 14.1338 9.73629V6.26688C14.1338 6.12454 14.2584 6 14.4185 6H18.1192C18.2794 6 18.4039 6.12454 18.4039 6.26688ZM9.8638 14.2732V17.7248C9.8638 17.8672 9.73926 17.9917 9.57913 17.9917H5.87842C5.71829 17.9917 5.59375 17.8672 5.59375 17.7248V14.2554C5.59375 14.1131 5.71829 13.9885 5.87842 13.9885H9.57913C9.73926 13.9885 9.8638 14.1131 9.8638 14.2554V14.2732ZM18.4039 14.2732V17.7248C18.4039 17.8672 18.2794 17.9917 18.1192 17.9917H14.4185C14.2584 17.9917 14.1338 17.8672 14.1338 17.7248V14.2554C14.1338 14.1131 14.2584 13.9885 14.4185 13.9885H18.1192C18.2794 13.9885 18.4039 14.1131 18.4039 14.2554V14.2732Z" fill="white"/>
</svg>
