<svg width="24" height="24" viewBox="0 0 24 24" fill="none" xmlns="http://www.w3.org/2000/svg">
<path d="M0 12C0 5.37258 5.37258 0 12 0V0C18.6274 0 24 5.37258 24 12V12C24 18.6274 18.6274 24 12 24V24C5.37258 24 0 18.6274 0 12V12Z" fill="#F0B90B"/>
<path d="M8.96956 10.7551L11.9991 7.72572L15.0301 10.7567L16.7929 8.9939L11.9991 4.19995L7.20684 8.99234L8.96956 10.7551ZM4.19922 11.9996L5.96207 10.2367L7.7248 11.9995L5.96197 13.7623L4.19922 11.9996ZM8.96956 13.2445L11.9991 16.2739L15.0301 13.243L16.7938 15.0049L16.7929 15.0058L11.9991 19.7997L7.20669 15.0074L7.20419 15.0049L8.96956 13.2445ZM16.2736 12.0005L18.0365 10.2377L19.7992 12.0004L18.0364 13.7632L16.2736 12.0005Z" fill="white"/>
<path d="M13.7866 12.0004H13.7874L11.9986 10.2117L10.6767 11.5336H10.6766L10.5247 11.6855L10.2115 11.9989L10.209 12.0013L10.2115 12.0038L11.9986 13.791L13.7874 12.0023L13.7882 12.0013L13.7866 12.0004" fill="white"/>
</svg>
