<svg width="24" height="24" viewBox="0 0 24 24" fill="none" xmlns="http://www.w3.org/2000/svg">
<path d="M0 12C0 5.37258 5.37258 0 12 0V0C18.6274 0 24 5.37258 24 12V12C24 18.6274 18.6274 24 12 24V24C5.37258 24 0 18.6274 0 12V12Z" fill="#2E5CFF"/>
<path fill-rule="evenodd" clip-rule="evenodd" d="M17.2074 11.3956V4.80005L5.5918 8.07068V15.9294L17.2074 19.2V11.3929V11.3956ZM16.0855 11.0805V6.27237L7.55037 8.67645L16.0855 11.0805ZM15.2488 12.0014L6.71641 9.59733V14.4028L15.2516 11.9987L15.2488 12.0014ZM7.55037 15.3264L16.0855 17.7304V12.9196L7.55037 15.3236V15.3291V15.3264Z" fill="white"/>
</svg>
