<svg width="20" height="20" viewBox="0 0 20 20" fill="none" xmlns="http://www.w3.org/2000/svg">
<clipPath id="clip-rklb"><circle cx="10" cy="10" r="10"/></clipPath>
<g clip-path="url(#clip-rklb)">
<rect width="20" height="20" fill="url(#bg-rklb)"/>
<g transform="translate(4.286,3.928)">
<path fill-rule="evenodd" clip-rule="evenodd" d="M8.3321 7.21786C8.39977 6.45745 8.39977 5.69254 8.3321 4.93214C8.79622 5.27665 9.23212 5.65762 9.63567 6.07143C9.23295 6.48937 8.79699 6.87396 8.3321 7.22143V7.21786ZM8.09638 6.05C8.09638 5.58929 8.07496 5.14286 8.0321 4.71429C7.25927 4.16884 6.43371 3.70222 5.56781 3.32143C4.70706 3.70349 3.88637 4.17007 3.11781 4.71429C3.027 5.62167 3.02939 6.53596 3.12496 7.44286C3.88939 7.98961 4.70654 8.45861 5.56424 8.84286C6.42888 8.46038 7.2532 7.99258 8.02496 7.44643C8.07138 6.99643 8.09638 6.53214 8.09638 6.05ZM9.78924 5.90357C9.33259 5.42883 8.83415 4.99613 8.29996 4.61071C8.21424 3.86786 8.06424 3.18214 7.86424 2.575C9.26424 2.29643 10.3642 2.46786 10.7571 3.125C10.9 3.36071 10.9428 3.64286 10.8964 3.95C10.733 3.90786 10.56 3.92491 10.408 3.99813C10.256 4.07135 10.1348 4.19602 10.0659 4.35004C9.99705 4.50406 9.98492 4.67749 10.0317 4.8396C10.0784 5.00171 10.1811 5.14204 10.3214 5.23571C10.1585 5.46952 9.98076 5.6926 9.78924 5.90357ZM8.2821 7.68571C8.88924 7.24286 9.42496 6.775 9.8571 6.30714C10.8035 7.36786 11.2035 8.39286 10.8035 9.05714C10.4 9.72857 9.27853 9.88929 7.85353 9.6C8.04639 9.02857 8.19281 8.38214 8.2821 7.68571ZM10.9928 9.225C10.5285 9.99286 9.29281 10.2 7.74638 9.90357C7.22496 11.2714 6.4321 12.1429 5.54281 12.1429C5.18567 12.1429 4.84638 12 4.52853 11.7429C4.42069 11.7818 4.30504 11.7943 4.19137 11.7792C4.0777 11.764 3.96935 11.7217 3.87547 11.6559C3.78159 11.59 3.70495 11.5025 3.65202 11.4008C3.59909 11.2991 3.57143 11.1861 3.57138 11.0714C3.57178 10.9302 3.61403 10.7922 3.69281 10.675C3.56424 10.4393 3.44281 10.175 3.33567 9.89643C1.83924 10.1679 0.646384 9.95 0.192813 9.2C-0.260759 8.43929 0.146384 7.3 1.1571 6.14286C0.139241 4.98214 -0.271473 3.83571 0.18567 3.07143C0.394362 2.75341 0.711779 2.52233 1.07853 2.42143C1.09744 2.26046 1.17054 2.11071 1.28582 1.99678C1.40109 1.88284 1.55169 1.8115 1.71287 1.79447C1.87405 1.77744 2.03623 1.81573 2.17277 1.90305C2.30931 1.99037 2.4121 2.12154 2.46424 2.275C2.72496 2.28929 3.00353 2.32143 3.29281 2.37143C3.81067 0.928571 4.62853 0 5.54281 0C6.46067 0 7.27496 0.928572 7.79281 2.36429C9.32138 2.075 10.5428 2.28571 11.0035 3.04643C11.1821 3.34286 11.225 3.69643 11.1571 4.08214C11.2798 4.17931 11.3673 4.31411 11.4059 4.46581C11.4446 4.61751 11.4323 4.77771 11.371 4.92177C11.3098 5.06583 11.2029 5.18577 11.0668 5.26314C10.9307 5.34051 10.7729 5.37103 10.6178 5.35C10.4464 5.61071 10.2428 5.875 10.0107 6.14286C11.0321 7.30714 11.4535 8.46072 10.9928 9.225ZM7.96781 7.90357C7.89009 8.4606 7.76585 9.01014 7.59638 9.54643C7.05053 9.41369 6.51564 9.23937 5.99638 9.025C6.68282 8.70658 7.34214 8.33272 7.96781 7.90714V7.90357ZM7.49281 9.85C6.88567 9.71429 6.2321 9.5 5.56424 9.21429C4.9462 9.47786 4.30547 9.68467 3.64996 9.83214C3.7321 10.0571 3.82138 10.2679 3.91781 10.4607C4.06924 10.3664 4.25047 10.3321 4.42587 10.3647C4.60127 10.3973 4.75814 10.4943 4.8656 10.6367C4.97307 10.7791 5.02337 10.9566 5.00659 11.1342C4.98982 11.3118 4.90719 11.4767 4.77496 11.5964C5.02496 11.7929 5.29281 11.9 5.57496 11.9C6.34281 11.9 7.02853 11.1036 7.49281 9.85ZM4.16424 8.52143C4.48567 8.70357 4.81067 8.87143 5.13567 9.02143C4.5821 9.24286 4.04638 9.41429 3.54638 9.52857C3.38924 9.03929 3.26424 8.49286 3.1821 7.90357C3.50076 8.12308 3.82842 8.32921 4.16424 8.52143ZM3.2321 9.59286C3.03567 9.01071 2.88924 8.34643 2.79996 7.63214C2.26248 7.23886 1.76271 6.79648 1.3071 6.31071C0.378527 7.35714 -0.0143302 8.37143 0.38567 9.03214C0.778527 9.68571 1.8571 9.85357 3.2321 9.59643V9.59286ZM1.52496 6.07143C1.90411 6.46825 2.31369 6.83485 2.74996 7.16786C2.68858 6.44296 2.68858 5.71418 2.74996 4.98929C2.28567 5.34643 1.87496 5.71071 1.52496 6.07143ZM2.7821 4.66429C2.27793 5.03702 1.80711 5.45288 1.37496 5.90714C0.424956 4.84643 0.0285269 3.82143 0.428527 3.15714C0.583058 2.91628 0.814731 2.73497 1.08567 2.64286C1.121 2.81746 1.2203 2.97257 1.36409 3.07774C1.50787 3.18291 1.68577 3.23055 1.86288 3.21132C2.03998 3.19209 2.20351 3.10737 2.32137 2.97379C2.43923 2.84021 2.50293 2.66741 2.49996 2.48929C2.72853 2.50714 2.97138 2.53571 3.22138 2.58214C3.01781 3.2 2.86424 3.90357 2.7821 4.66429ZM3.15353 4.39643C3.23567 3.76071 3.36067 3.17143 3.52496 2.64643C4.06781 2.76429 4.6571 2.95 5.26067 3.2C4.52481 3.53673 3.81975 3.93706 3.15353 4.39643ZM7.61781 2.62857C7.06781 2.75357 6.47496 2.94643 5.86781 3.2C6.60985 3.53575 7.32092 3.9361 7.99281 4.39643C7.91067 3.75357 7.78567 3.15714 7.61781 2.62857ZM3.59281 2.43214C4.21424 2.56429 4.87853 2.77857 5.56424 3.06429C6.20445 2.78712 6.86927 2.5707 7.54996 2.41786C7.08567 1.06786 6.37138 0.203571 5.57496 0.203571C4.77138 0.203571 4.05353 1.075 3.59281 2.43214ZM7.67853 6.07143C7.67853 6.63975 7.45276 7.18479 7.0509 7.58666C6.64904 7.98852 6.10399 8.21429 5.53567 8.21429C4.96735 8.21429 4.4223 7.98852 4.02044 7.58666C3.61858 7.18479 3.39281 6.63975 3.39281 6.07143C3.39281 5.50311 3.61858 4.95806 4.02044 4.5562C4.4223 4.15434 4.96735 3.92857 5.53567 3.92857C6.10399 3.92857 6.64904 4.15434 7.0509 4.5562C7.45276 4.95806 7.67853 5.50311 7.67853 6.07143ZM4.03924 5.1C4.33924 4.83929 4.5821 4.99286 4.66781 5.1C4.61424 5.06071 4.49638 5 4.45353 5.06429C4.4338 5.09259 4.40834 5.11643 4.37881 5.13427C4.34928 5.15211 4.31633 5.16356 4.2821 5.16786V5.06786L4.03924 5.10357V5.1ZM3.57138 5.42857C3.62138 5.33929 3.7321 5.15357 3.77496 5.13929C3.81781 5.125 3.71424 5.36429 3.65353 5.48214C3.62853 5.51071 3.57138 5.53571 3.57138 5.42857ZM3.70353 5.575L3.49638 5.66429V5.76429C3.59281 5.72857 3.67496 5.62143 3.70353 5.575ZM4.44281 5.20357C4.4821 5.26786 4.6071 5.425 4.77853 5.55C4.99281 5.70357 4.81424 6.09643 4.66781 6.13571C4.54996 6.16429 4.5071 6.06429 4.50353 6.01429C4.39638 5.99643 4.1571 6.04286 4.02853 6.375C3.9571 6.29286 3.81424 6.10357 3.8071 6.01786C3.79638 5.90357 4.02853 5.375 4.17853 5.31786C4.2071 5.31071 4.26424 5.32143 4.26781 5.425C4.32496 5.45714 4.44281 5.46071 4.44281 5.20357ZM4.86781 6.21429C4.86781 6.23039 4.86142 6.24583 4.85003 6.25722C4.83864 6.2686 4.8232 6.275 4.8071 6.275C4.791 6.275 4.77555 6.2686 4.76417 6.25722C4.75278 6.24583 4.74638 6.23039 4.74638 6.21429C4.74638 6.19818 4.75278 6.18274 4.76417 6.17135C4.77555 6.15997 4.791 6.15357 4.8071 6.15357C4.8232 6.15357 4.83864 6.15997 4.85003 6.17135C4.86142 6.18274 4.86781 6.19818 4.86781 6.21429ZM5.19996 6.46429L5.38567 6.21429H5.47853L5.45353 5.975L5.61067 6.06429L5.31781 6.5L5.19996 6.46429ZM4.99638 7.125C5.07803 7.0973 5.16447 7.0865 5.25042 7.09325C5.33638 7.1 5.42006 7.12417 5.49638 7.16429C5.46424 7.15357 5.41424 7.17857 5.44281 7.37857C5.47138 7.57857 5.59638 7.575 5.6571 7.54643C5.68365 7.50161 5.71987 7.46328 5.76312 7.43424C5.80637 7.4052 5.85556 7.38618 5.9071 7.37857C6.03924 7.36786 6.07853 7.51071 6.08567 7.58214C6.19281 7.56071 6.22853 7.62857 6.16424 7.67143C6.11067 7.70714 6.14281 7.80357 6.16424 7.85C6.0821 7.85 5.9821 7.76429 5.93924 7.72143C5.8321 7.7 5.76067 7.79643 5.74638 7.84643C5.73924 7.94643 5.63567 8.11786 5.24638 8.025C4.86067 7.93214 4.77138 7.78571 4.77496 7.72143H4.9321C4.71781 7.63214 4.6821 7.51786 4.68924 7.47143C4.71067 7.38929 4.80353 7.2 4.99638 7.125Z" fill="white"/>
</g>
</g>
<defs>
<linearGradient id="bg-rklb" x1="3.72143" y1="3.46786" x2="24.3393" y2="27.15" gradientUnits="userSpaceOnUse">
<stop stop-color="#1A1E21"/>
<stop offset="1" stop-color="#06060A"/>
</linearGradient>
</defs>
</svg>
