<svg width="24" height="24" viewBox="0 0 24 24" fill="none" xmlns="http://www.w3.org/2000/svg">
<path d="M0 12C0 5.37258 5.37258 0 12 0V0C18.6274 0 24 5.37258 24 12V12C24 18.6274 18.6274 24 12 24V24C5.37258 24 0 18.6274 0 12V12Z" fill="#070808"/>
<path d="M12.0008 15.96C11.4807 15.96 10.9658 15.8576 10.4854 15.6586C10.0049 15.4596 9.56836 15.1679 9.20064 14.8002C8.83292 14.4325 8.54123 13.9959 8.34222 13.5155C8.14321 13.035 8.04078 12.5201 8.04078 12C8.04078 11.48 8.14321 10.9651 8.34222 10.4846C8.54123 10.0042 8.83292 9.56763 9.20064 9.19991C9.56836 8.83219 10.0049 8.54049 10.4854 8.34149C10.9658 8.14248 11.4807 8.04005 12.0008 8.04005V4.80005C10.5768 4.80005 9.18471 5.22232 8.00068 6.01347C6.81664 6.80461 5.8938 7.9291 5.34885 9.24473C4.8039 10.5604 4.66132 12.008 4.93913 13.4047C5.21694 14.8014 5.90268 16.0843 6.90962 17.0912C7.91655 18.0982 9.19947 18.7839 10.5961 19.0617C11.9928 19.3395 13.4405 19.1969 14.7561 18.652C16.0717 18.107 17.1962 17.1842 17.9874 16.0002C18.7785 14.8161 19.2008 13.4241 19.2008 12H15.9608C15.9608 13.0503 15.5436 14.0575 14.8009 14.8002C14.0583 15.5428 13.051 15.96 12.0008 15.96Z" fill="#007EFF"/>
<path d="M15.96 8.03979H12V11.9998H15.96V8.03979Z" fill="#00E697"/>
</svg>
