<svg width="24" height="24" viewBox="0 0 24 24" fill="none" xmlns="http://www.w3.org/2000/svg">
<path d="M0 12C0 5.37258 5.37258 0 12 0V0C18.6274 0 24 5.37258 24 12V12C24 18.6274 18.6274 24 12 24V24C5.37258 24 0 18.6274 0 12V12Z" fill="#00C805"/>
<path d="M11.6834 16.0043L11.5892 16.0429C11.0261 16.2306 10.1824 16.5114 9.44917 16.8682C9.41059 16.8866 9.37449 16.9426 9.37449 16.9426C9.35465 16.9798 9.33453 17.0184 9.31869 17.0559C9.24015 17.2433 9.11243 17.5255 9.07385 17.6559L9.03802 17.7517V17.7877L9.05401 17.8076H9.07385L9.16437 17.7704C9.37449 17.6745 9.63545 17.5255 9.90013 17.395H9.91762C10.4021 17.1691 10.8839 16.9376 11.363 16.7004C11.363 16.7004 11.4186 16.6632 11.4573 16.6073L11.7195 16.0803V16.0431C11.7195 16.0043 11.6996 15.9871 11.6836 16.0043M9.58089 15.1793C9.61946 15.1035 9.7859 14.7841 9.82572 14.7095V14.6909C10.9701 12.5325 12.3609 10.5048 13.9524 8.64582L13.9924 8.58919C14.0126 8.5699 14.0126 8.55144 13.9924 8.53311C13.9725 8.5141 13.9524 8.49481 13.9366 8.5141H13.862C12.808 8.66497 11.7394 8.85249 10.6893 9.11483C10.575 9.15272 10.5192 9.20949 10.4992 9.22671C9.71123 10.1662 8.97809 11.1609 8.28188 12.1757C8.30461 12.2316 8.30461 12.3446 8.30461 12.3446C8.30461 12.3446 8.47105 13.6583 8.71727 14.6349C8.11557 16.4184 7.55273 18.7831 7.55273 18.7831V18.8217C7.55273 18.8403 7.57271 18.8403 7.58856 18.8403H7.94541C7.96415 18.8403 7.98399 18.8218 8.00397 18.8031L8.01995 18.7273C8.37667 17.7517 8.79181 16.775 9.24029 15.8353C9.35465 15.6278 9.58089 15.1793 9.58089 15.1793Z" fill="white"/>
<path d="M14.5005 9.04097V8.96575C14.5005 8.94646 14.4803 8.92703 14.4644 8.90967C14.4446 8.90967 14.4245 8.90967 14.4057 8.92703L14.3687 8.98366C12.4882 11.143 10.9324 13.5456 9.69621 16.1183L9.65625 16.1738V16.2311C9.67209 16.2485 9.67209 16.2485 9.69621 16.2485H9.71205L9.76813 16.2311C10.818 15.7988 11.8907 15.4234 12.9593 15.1041C13.0152 15.0853 13.0737 15.0481 13.1098 14.9923C13.5808 14.0912 14.6667 12.326 14.6667 12.326C14.7066 12.2693 14.6894 12.213 14.6894 12.213C14.6894 12.213 14.5005 10.11 14.5005 9.04097Z" fill="white"/>
<path d="M16.9035 5.99882C16.6425 5.77259 16.2431 5.66016 15.6446 5.64224C15.1215 5.62295 14.4799 5.75467 13.748 5.97953C13.6361 6.01825 13.5603 6.07405 13.4661 6.1479C12.7167 6.84329 12.0046 7.59462 11.3273 8.34566L11.2689 8.4016C11.2515 8.42089 11.2515 8.43881 11.2689 8.45809C11.2873 8.47697 11.3073 8.49488 11.3273 8.47697L11.402 8.45796C12.5118 8.21395 13.6163 8.04489 14.7063 7.93122C14.7808 7.93122 14.8566 7.95051 14.9111 7.98771C14.9712 8.04489 14.9869 8.10152 14.9869 8.1755C14.9712 9.26536 15.007 10.3538 15.0989 11.4051V11.4802C15.0989 11.4985 15.1215 11.5178 15.1372 11.5178H15.1575C15.1773 11.5178 15.1933 11.5178 15.1933 11.4985L15.2319 11.4425C15.8505 10.5609 16.5083 9.71508 17.2215 8.90919C17.2959 8.81481 17.316 8.75818 17.3358 8.6824C17.5582 7.31175 17.2215 6.26171 16.9035 5.99882Z" fill="white"/>
</svg>
