<svg width="20" height="20" viewBox="0 0 20 20" fill="none" xmlns="http://www.w3.org/2000/svg"><path d="M11.5347 1.10008C11.672 0.958933 11.8876 0.929157 12.0581 1.02782C12.2287 1.12654 12.3105 1.32854 12.2564 1.51805L10.5708 7.41942H18.6001C18.7704 7.41949 18.925 7.52042 18.9937 7.67625C19.0624 7.83218 19.0325 8.01435 18.9175 8.14012L9.0884 18.8901C8.95862 19.0319 8.75051 19.07 8.57864 18.9839C8.40687 18.8977 8.31318 18.7078 8.34915 18.519L9.48098 12.5796H1.39993C1.22714 12.5796 1.07072 12.476 1.00344 12.3169C0.936461 12.1578 0.971071 11.9739 1.09133 11.8501L11.5347 1.10008ZM2.41751 11.7202H9.99954C10.1277 11.7202 10.2499 11.7768 10.3316 11.8755C10.4132 11.9741 10.4462 12.1042 10.4224 12.23L9.47708 17.1899L17.6245 8.27977H9.99954C9.86479 8.27965 9.73794 8.21644 9.65676 8.10887C9.57554 8.00119 9.54945 7.86161 9.58645 7.73192L10.9585 2.92625L2.41751 11.7202Z" fill="black"/></svg>
