<svg width="16" height="16" viewBox="0 0 16 16" fill="none" xmlns="http://www.w3.org/2000/svg">
<path d="M13.6 13.1999C13.8209 13.1999 14 13.379 14 13.5999C14 13.8208 13.8209 13.9999 13.6 13.9999H2.4C2.17912 13.9999 2.00005 13.8208 2 13.5999C2 13.379 2.17909 13.1999 2.4 13.1999H13.6ZM11.2 10.7999C11.4209 10.7999 11.6 10.979 11.6 11.1999C11.6 11.4208 11.4209 11.5999 11.2 11.5999H4.8C4.57912 11.5999 4.40005 11.4208 4.4 11.1999C4.4 10.979 4.57909 10.7999 4.8 10.7999H11.2ZM7.43438 2.23428C7.74679 1.9219 8.25321 1.92191 8.56563 2.23428L11.8828 5.55147C12.0388 5.7077 12.039 5.96095 11.8828 6.1171C11.7267 6.27315 11.4734 6.2731 11.3172 6.1171L8.4 3.19991V9.03428C8.3999 9.2551 8.22083 9.43426 8 9.43428C7.77915 9.43428 7.6001 9.25512 7.6 9.03428V3.19991L4.68281 6.1171C4.52665 6.27315 4.27338 6.2731 4.11719 6.1171C3.96101 5.96092 3.96108 5.70769 4.11719 5.55147L7.43438 2.23428Z" fill="white"/>
</svg>
